<?xml version="1.0" encoding="UTF-8" standalone="no"?>
<svg
   viewBox="0 0 36 36"
   version="1.1"
   id="svg4"
   sodipodi:docname="apple.svg"
   width="36"
   height="36"
   inkscape:version="1.1 (c68e22c387, 2021-05-23)"
   xmlns:inkscape="http://www.inkscape.org/namespaces/inkscape"
   xmlns:sodipodi="http://sodipodi.sourceforge.net/DTD/sodipodi-0.dtd"
   xmlns="http://www.w3.org/2000/svg"
   xmlns:svg="http://www.w3.org/2000/svg">
  <defs
     id="defs8" />
  <sodipodi:namedview
     id="namedview6"
     pagecolor="#505050"
     bordercolor="#eeeeee"
     borderopacity="1"
     inkscape:pageshadow="0"
     inkscape:pageopacity="0"
     inkscape:pagecheckerboard="0"
     showgrid="false"
     inkscape:zoom="1.4023438"
     inkscape:cx="191.82173"
     inkscape:cy="256.35655"
     inkscape:window-width="1920"
     inkscape:window-height="991"
     inkscape:window-x="-9"
     inkscape:window-y="-9"
     inkscape:window-maximized="1"
     inkscape:current-layer="svg4" />
  <!--! Font Awesome Pro 6.4.0 by @fontawesome - https://fontawesome.com License - https://fontawesome.com/license (Commercial License) Copyright 2023 Fonticons, Inc. -->
  <path
     d="m 27.074123,18.913922 c -0.01435,-2.632572 1.176408,-4.619554 3.58661,-6.082891 -1.348565,-1.929596 -3.38576,-2.9912334 -6.075717,-3.1992564 -2.546493,-0.20085 -5.329703,1.4848574 -6.3483,1.4848574 -1.075983,0 -3.54357,-1.4131254 -5.48034,-1.4131254 C 8.7537194,9.7680656 4.5,12.89559 4.5,19.258236 q 0,2.819076 1.0329437,5.824655 c 0.9181721,2.632572 4.2321998,9.08847 7.6896913,8.980871 1.807652,-0.04304 3.084485,-1.284006 5.437301,-1.284006 2.281084,0 3.464665,1.284006 5.48034,1.284006 C 27.626461,34.01355 30.624867,28.145856 31.5,25.506111 26.823061,23.303932 27.074123,19.050213 27.074123,18.913922 Z M 23.014081,7.1354936 c 1.958289,-2.324123 1.778958,-4.440223 1.721573,-5.200584 -1.728746,0.100425 -3.730075,1.176408 -4.870617,2.503454 -1.255313,1.420297 -1.994155,3.177736 -1.836344,5.157545 1.87221,0.143464 3.579437,-0.817747 4.985388,-2.460415 z"
     id="path2"
     style="stroke-width:0.0717322;fill:#ffffff;fill-opacity:1" />
</svg>
