<?xml version="1.0" encoding="UTF-8" standalone="no"?>
<svg
   viewBox="0 0 36 36"
   version="1.1"
   id="svg4"
   sodipodi:docname="linux.svg"
   width="36"
   height="36"
   inkscape:version="1.1 (c68e22c387, 2021-05-23)"
   xmlns:inkscape="http://www.inkscape.org/namespaces/inkscape"
   xmlns:sodipodi="http://sodipodi.sourceforge.net/DTD/sodipodi-0.dtd"
   xmlns="http://www.w3.org/2000/svg"
   xmlns:svg="http://www.w3.org/2000/svg">
  <defs
     id="defs8" />
  <sodipodi:namedview
     id="namedview6"
     pagecolor="#505050"
     bordercolor="#eeeeee"
     borderopacity="1"
     inkscape:pageshadow="0"
     inkscape:pageopacity="0"
     inkscape:pagecheckerboard="0"
     showgrid="false"
     inkscape:zoom="11.21875"
     inkscape:cx="13.816156"
     inkscape:cy="20.813371"
     inkscape:window-width="1920"
     inkscape:window-height="991"
     inkscape:window-x="-9"
     inkscape:window-y="-9"
     inkscape:window-maximized="1"
     inkscape:current-layer="svg4" />
  <!--! Font Awesome Pro 6.4.0 by @fontawesome - https://fontawesome.com License - https://fontawesome.com/license (Commercial License) Copyright 2023 Fonticons, Inc. -->
  <path
     d="m 17.789392,9.5254158 c 0.06385,0.031926 0.114934,0.1085493 0.191557,0.1085493 0.07024,0 0.178788,-0.025541 0.185173,-0.095779 0.01277,-0.089394 -0.12132,-0.1468609 -0.204328,-0.1851724 -0.10855,-0.044697 -0.249025,-0.063853 -0.351189,-0.00639 -0.02554,0.012771 -0.05108,0.044697 -0.03831,0.070238 0.01916,0.083008 0.146861,0.070238 0.217099,0.1085494 z m -1.398371,0.1085493 c 0.07662,0 0.127705,-0.076623 0.191557,-0.1085493 0.07024,-0.038311 0.197943,-0.025541 0.223484,-0.1021641 0.01277,-0.025541 -0.01277,-0.057467 -0.03831,-0.070238 -0.102164,-0.057467 -0.24264,-0.038311 -0.351189,0.00639 -0.08301,0.038312 -0.217099,0.095779 -0.204328,0.1851725 0.0064,0.063853 0.114934,0.095779 0.178787,0.089393 z m 14.1178,17.8020929 c -0.229869,-0.25541 -0.338418,-0.74069 -0.459738,-1.257895 -0.114935,-0.517206 -0.249025,-1.072723 -0.670452,-1.430298 -0.08301,-0.07024 -0.166017,-0.13409 -0.25541,-0.185172 -0.08301,-0.05108 -0.172402,-0.09578 -0.261796,-0.127705 0.587444,-1.743175 0.357575,-3.479965 -0.236254,-5.050738 -0.727919,-1.921962 -1.998585,-3.601284 -2.969144,-4.75063 -1.091879,-1.37283 -2.151831,-2.675422 -2.132676,-4.597384 0.03193,-2.9308321 0.325648,-8.3774552 -4.840023,-8.3838405 -6.538502,-0.01277 -4.903877,6.6023544 -4.974115,8.6328655 -0.108549,1.49415 -0.408656,2.669037 -1.436682,4.13126 -1.206813,1.436683 -2.9052915,3.754531 -3.7098345,6.174543 -0.383115,1.142961 -0.561902,2.305077 -0.395886,3.403341 -0.415041,0.370345 -0.727919,0.938633 -1.059952,1.289822 -0.268181,0.274566 -0.657681,0.37673 -1.085493,0.529976 -0.427813,0.153246 -0.893936,0.383115 -1.181273,0.925862 -0.13409,0.249025 -0.178787,0.517206 -0.178787,0.791772 0,0.249025 0.03831,0.504435 0.07662,0.75346 0.07662,0.517206 0.159632,1.002485 0.05108,1.328133 -0.332033,0.919477 -0.37673,1.558002 -0.140475,2.024126 0.242639,0.466124 0.727919,0.670452 1.283436,0.785387 1.104649,0.229869 2.605184,0.172402 3.786457,0.798157 1.2642805,0.664066 2.5477175,0.900321 3.5693585,0.664066 0.740689,-0.166016 1.347288,-0.612984 1.653781,-1.289821 0.798157,-0.0064 1.679322,-0.344804 3.084078,-0.421427 0.951403,-0.07662 2.145446,0.338418 3.518276,0.261795 0.03831,0.146861 0.08939,0.293722 0.159632,0.427812 v 0.0064 c 0.529976,1.066338 1.51969,1.551618 2.573258,1.468609 1.059952,-0.08301 2.177372,-0.702378 3.084078,-1.781486 0.868395,-1.047182 2.298692,-1.481379 3.250095,-2.056052 0.472509,-0.287337 0.855625,-0.644911 0.887551,-1.168502 0.02554,-0.523591 -0.280951,-1.104649 -0.989715,-1.896421 z M 17.974564,7.2267237 C 18.600319,5.809197 20.158322,5.834738 20.784077,7.2011827 21.199118,8.107889 21.013946,9.1742267 20.509511,9.780826 20.407347,9.729744 20.132781,9.6148094 19.704969,9.4679485 19.775209,9.3913255 19.902911,9.2955466 19.953993,9.1742267 20.260486,8.4207666 19.941223,7.4502077 19.372935,7.4310519 18.906812,7.3991259 18.485385,8.1206595 18.619475,8.8996607 18.35768,8.7719556 18.019261,8.6761768 17.789392,8.6187095 17.725539,8.1781268 17.770236,7.6864621 17.974564,7.2267237 Z M 15.375765,6.4924193 c 0.644911,0 1.328133,0.9067063 1.219584,2.1390607 -0.223484,0.063852 -0.453353,0.1596314 -0.651296,0.2937218 0.07662,-0.5682878 -0.210714,-1.2834364 -0.612985,-1.2515102 -0.536361,0.044697 -0.625755,1.3536742 -0.114934,1.7942569 0.06385,0.051082 0.12132,-0.01277 -0.37673,0.3511891 -0.9961,-0.9322474 -0.670452,-3.3267183 0.536361,-3.3267183 z M 14.50737,10.36827 c 0.395886,-0.293722 0.868395,-0.638526 0.900321,-0.6704523 0.300107,-0.2809513 0.86201,-0.9067063 1.781487,-0.9067063 0.453353,0 0.9961,0.1468609 1.653781,0.5682877 0.402271,0.2617955 0.721534,0.2809513 1.443068,0.5938288 0.536361,0.2234841 0.87478,0.6193701 0.670452,1.1621171 -0.166017,0.453353 -0.702378,0.919476 -1.449453,1.155731 -0.708764,0.229869 -1.264281,1.02164 -2.439168,0.951403 -0.249025,-0.01277 -0.446968,-0.06385 -0.612985,-0.134091 -0.51082,-0.223484 -0.779001,-0.664066 -1.277051,-0.957788 -0.549132,-0.306492 -0.842854,-0.664066 -0.938632,-0.976944 -0.08939,-0.312877 0,-0.574673 0.26818,-0.785386 z m 0.210714,21.326753 c -0.172402,2.241225 -2.803127,2.196528 -4.8080985,1.149346 -1.909191,-1.00887 -4.380285,-0.415041 -4.88472,-1.398371 -0.153247,-0.300107 -0.153247,-0.810927 0.166016,-1.685707 v -0.01277 c 0.153246,-0.485279 0.03831,-1.02164 -0.03831,-1.526076 -0.07662,-0.49805 -0.114935,-0.957788 0.05747,-1.277051 0.223484,-0.427812 0.542747,-0.581058 0.945018,-0.721534 0.657681,-0.236254 0.75346,-0.217098 1.25151,-0.63214 0.351189,-0.36396 0.606599,-0.823698 0.913092,-1.149346 0.325648,-0.351189 0.638525,-0.517206 1.13019,-0.440583 0.517206,0.07662 0.9641735,0.434198 1.3983715,1.021641 l 1.25151,2.273151 c 0.606599,1.270666 2.752045,3.090464 2.617955,4.399441 z m -0.08939,-1.653781 c -0.261795,-0.421427 -0.612984,-0.868395 -0.919477,-1.25151 0.453354,0 0.906707,-0.140476 1.066338,-0.568288 0.146861,-0.395886 0,-0.951403 -0.472509,-1.589928 -0.862009,-1.162117 -2.445553,-2.075208 -2.445553,-2.075208 -0.862009,-0.536362 -1.347289,-1.194043 -1.570773,-1.909192 -0.223484,-0.715149 -0.191557,-1.487764 -0.01915,-2.24761 0.332033,-1.462223 1.187657,-2.886136 1.736789,-3.780071 0.146861,-0.10855 0.05108,0.204328 -0.555517,1.328133 -0.542747,1.028026 -1.5580035,3.403341 -0.166017,5.261451 0.03831,-1.321748 0.351189,-2.669037 0.881166,-3.926933 0.76623,-1.74956 2.3817,-4.782556 2.509405,-7.196183 0.07024,0.05108 0.293722,0.204328 0.395886,0.261796 0.293722,0.172402 0.517206,0.427812 0.804542,0.657681 0.791772,0.638526 1.819798,0.587443 2.707349,0.07662 0.395885,-0.223484 0.715148,-0.478894 1.015255,-0.574673 0.63214,-0.197943 1.136576,-0.549132 1.423912,-0.957788 0.491665,1.941117 1.641011,4.744245 2.375315,6.110689 0.389501,0.72792 1.168502,2.266766 1.506921,4.124876 0.210713,-0.0064 0.446968,0.02554 0.695993,0.08939 0.881165,-2.279536 -0.747075,-4.73786 -1.487765,-5.421082 -0.300107,-0.293722 -0.312878,-0.421427 -0.166017,-0.415042 0.804543,0.715149 1.864495,2.151832 2.24761,3.767301 0.178787,0.74069 0.210714,1.513306 0.02554,2.279537 1.047182,0.434197 2.292307,1.14296 1.960274,2.222069 -0.140476,-0.0064 -0.204328,0 -0.268181,0 0.204328,-0.644911 -0.249025,-1.123805 -1.455838,-1.666552 -1.25151,-0.549132 -2.298692,-0.549132 -2.445553,0.798157 -0.772616,0.268181 -1.168502,0.938632 -1.366445,1.743175 -0.178787,0.715148 -0.229869,1.577158 -0.280951,2.547717 -0.03193,0.491664 -0.229869,1.149346 -0.434197,1.851724 -2.049668,1.462223 -4.897492,2.100749 -7.298348,0.459738 z m 16.435644,-0.734304 c -0.05747,1.072723 -2.630725,1.270666 -4.035481,2.969144 -0.842854,1.002485 -1.877265,1.558002 -2.783972,1.62824 -0.906706,0.07024 -1.692092,-0.306492 -2.151831,-1.232354 -0.300107,-0.708764 -0.153246,-1.474994 0.07024,-2.317848 0.236254,-0.906707 0.587444,-1.838954 0.63214,-2.592414 0.05108,-0.970559 0.10855,-1.819798 0.268181,-2.471094 0.166017,-0.657681 0.421427,-1.098264 0.87478,-1.347289 0.01916,-0.01277 0.0447,-0.01916 0.06385,-0.03193 0.05108,0.842853 0.466123,1.698478 1.200428,1.88365 0.804542,0.210714 1.960273,-0.478894 2.451938,-1.040797 0.574673,-0.01915 1.002485,-0.05747 1.443068,0.325649 0.63214,0.542746 0.453353,1.934732 1.091878,2.656266 0.676838,0.74069 0.893936,1.245125 0.87478,1.570773 z M 14.756395,11.147271 c 0.127705,0.12132 0.300107,0.287336 0.510821,0.453353 0.421427,0.332033 1.00887,0.676837 1.743175,0.676837 0.740689,0 1.436682,-0.37673 2.030511,-0.689608 0.312877,-0.166016 0.695993,-0.446967 0.945018,-0.664066 0.249025,-0.217099 0.37673,-0.402271 0.197943,-0.421427 -0.178787,-0.01916 -0.166017,0.166017 -0.383116,0.325648 -0.280951,0.204328 -0.619369,0.472509 -0.88755,0.625755 -0.472509,0.268181 -1.245125,0.651296 -1.909192,0.651296 -0.664066,0 -1.194042,-0.306492 -1.589928,-0.61937 -0.197943,-0.159631 -0.36396,-0.319262 -0.491665,-0.440582 -0.09578,-0.08939 -0.12132,-0.293722 -0.274566,-0.312878 -0.08939,-0.0064 -0.114935,0.236255 0.108549,0.415042 z"
     id="path2"
     style="stroke-width:0.0638526;fill:#ffffff;fill-opacity:1" />
</svg>
